{
	"asset":{
		"generator":"Khronos glTF Blender I/O v3.5.30",
		"version":"2.0"
	},
	"scene":0,
	"scenes":[
		{
			"name":"Scene",
			"nodes":[
				0
			]
		}
	],
	"nodes":[
		{
			"mesh":0,
			"name":"revolver",
			"rotation":[
				0,
				-1,
				0,
				4.371138828673793e-08
			],
			"translation":[
				0.3915448784828186,
				0.04013165831565857,
				-0.7672021389007568
			]
		}
	],
	"materials":[
		{
			"doubleSided":true,
			"name":"Cycles Red & Silver Smart Material.001",
			"pbrMetallicRoughness":{
				"baseColorFactor":[
					0.8412007689476013,
					0.8412007689476013,
					0.8412007689476013,
					1
				],
				"roughnessFactor":0.4000000059604645
			}
		},
		{
			"doubleSided":true,
			"name":"bullet-low_BM_Custom_Material",
			"pbrMetallicRoughness":{
				"baseColorFactor":[
					0.8140397071838379,
					0.8140397071838379,
					0.8140397071838379,
					1
				],
				"roughnessFactor":0.43577998876571655
			}
		},
		{
			"doubleSided":true,
			"name":"Material.001",
			"pbrMetallicRoughness":{
				"baseColorFactor":[
					0.7742694020271301,
					0.7742694020271301,
					0.7742694020271301,
					1
				],
				"roughnessFactor":0.43577998876571655
			}
		}
	],
	"meshes":[
		{
			"name":"Cylinder.003",
			"primitives":[
				{
					"attributes":{
						"POSITION":0,
						"TEXCOORD_0":1,
						"NORMAL":2
					},
					"indices":3,
					"material":0
				},
				{
					"attributes":{
						"POSITION":4,
						"TEXCOORD_0":5,
						"NORMAL":6
					},
					"indices":7,
					"material":1
				},
				{
					"attributes":{
						"POSITION":8,
						"TEXCOORD_0":9,
						"NORMAL":10
					},
					"indices":11,
					"material":2
				}
			]
		}
	],
	"accessors":[
		{
			"bufferView":0,
			"componentType":5126,
			"count":406,
			"max":[
				1.7290189266204834,
				-0.050651077181100845,
				0.056670911610126495
			],
			"min":[
				-0.08984697610139847,
				-1.3740663528442383,
				-1.1902861595153809
			],
			"type":"VEC3"
		},
		{
			"bufferView":1,
			"componentType":5126,
			"count":406,
			"type":"VEC2"
		},
		{
			"bufferView":2,
			"componentType":5126,
			"count":406,
			"type":"VEC3"
		},
		{
			"bufferView":3,
			"componentType":5123,
			"count":1242,
			"type":"SCALAR"
		},
		{
			"bufferView":4,
			"componentType":5126,
			"count":476,
			"max":[
				0.19232134521007538,
				0.4342905879020691,
				0.5902048945426941
			],
			"min":[
				-0.8791471719741821,
				-0.5667131543159485,
				-0.3903362452983856
			],
			"type":"VEC3"
		},
		{
			"bufferView":5,
			"componentType":5126,
			"count":476,
			"type":"VEC2"
		},
		{
			"bufferView":6,
			"componentType":5126,
			"count":476,
			"type":"VEC3"
		},
		{
			"bufferView":7,
			"componentType":5123,
			"count":1860,
			"type":"SCALAR"
		},
		{
			"bufferView":8,
			"componentType":5126,
			"count":3693,
			"max":[
				1.8681254386901855,
				1.8745498657226562,
				1.0747350454330444
			],
			"min":[
				-1.2693473100662231,
				-1.6098062992095947,
				-1.2281391620635986
			],
			"type":"VEC3"
		},
		{
			"bufferView":9,
			"componentType":5126,
			"count":3693,
			"type":"VEC2"
		},
		{
			"bufferView":10,
			"componentType":5126,
			"count":3693,
			"type":"VEC3"
		},
		{
			"bufferView":11,
			"componentType":5123,
			"count":11772,
			"type":"SCALAR"
		}
	],
	"bufferViews":[
		{
			"buffer":0,
			"byteLength":4872,
			"byteOffset":0,
			"target":34962
		},
		{
			"buffer":0,
			"byteLength":3248,
			"byteOffset":4872,
			"target":34962
		},
		{
			"buffer":0,
			"byteLength":4872,
			"byteOffset":8120,
			"target":34962
		},
		{
			"buffer":0,
			"byteLength":2484,
			"byteOffset":12992,
			"target":34963
		},
		{
			"buffer":0,
			"byteLength":5712,
			"byteOffset":15476,
			"target":34962
		},
		{
			"buffer":0,
			"byteLength":3808,
			"byteOffset":21188,
			"target":34962
		},
		{
			"buffer":0,
			"byteLength":5712,
			"byteOffset":24996,
			"target":34962
		},
		{
			"buffer":0,
			"byteLength":3720,
			"byteOffset":30708,
			"target":34963
		},
		{
			"buffer":0,
			"byteLength":44316,
			"byteOffset":34428,
			"target":34962
		},
		{
			"buffer":0,
			"byteLength":29544,
			"byteOffset":78744,
			"target":34962
		},
		{
			"buffer":0,
			"byteLength":44316,
			"byteOffset":108288,
			"target":34962
		},
		{
			"buffer":0,
			"byteLength":23544,
			"byteOffset":152604,
			"target":34963
		}
	],
	"buffers":[
		{
			"byteLength":176148,
			"uri":"data:application/octet-stream;base64,"
		}
	]
}
