{
	"asset":{
		"generator":"Khronos glTF Blender I/O v3.5.30",
		"version":"2.0"
	},
	"extensionsUsed":[
		"KHR_lights_punctual"
	],
	"extensionsRequired":[
		"KHR_lights_punctual"
	],
	"extensions":{
		"KHR_lights_punctual":{
			"lights":[
				{
					"color":[
						1,
						1,
						1
					],
					"intensity":7.957747154594767,
					"type":"point",
					"name":"Point"
				},
				{
					"color":[
						1,
						1,
						1
					],
					"intensity":7.957747154594767,
					"type":"point",
					"name":"Point.001"
				},
				{
					"color":[
						1,
						1,
						1
					],
					"intensity":7.957747154594767,
					"type":"point",
					"name":"Point.002"
				},
				{
					"color":[
						1,
						1,
						1
					],
					"intensity":7.957747154594767,
					"type":"point",
					"name":"Point.003"
				}
			]
		}
	},
	"scene":0,
	"scenes":[
		{
			"name":"Scene",
			"nodes":[
				0,
				1,
				2,
				3,
				4
			]
		}
	],
	"nodes":[
		{
			"mesh":0,
			"name":"revolver"
		},
		{
			"extensions":{
				"KHR_lights_punctual":{
					"light":0
				}
			},
			"name":"Point",
			"rotation":[
				-0.7071068286895752,
				0,
				0,
				0.7071068286895752
			],
			"translation":[
				1.6127623319625854,
				0,
				1.1685152053833008
			]
		},
		{
			"extensions":{
				"KHR_lights_punctual":{
					"light":1
				}
			},
			"name":"Point.001",
			"rotation":[
				-0.7071068286895752,
				0,
				0,
				0.7071068286895752
			],
			"translation":[
				1.6127623319625854,
				0,
				-1.5897119045257568
			]
		},
		{
			"extensions":{
				"KHR_lights_punctual":{
					"light":2
				}
			},
			"name":"Point.002",
			"rotation":[
				-0.7071068286895752,
				0,
				0,
				0.7071068286895752
			],
			"translation":[
				-1.3539501428604126,
				0,
				1.1685152053833008
			]
		},
		{
			"extensions":{
				"KHR_lights_punctual":{
					"light":3
				}
			},
			"name":"Point.003",
			"rotation":[
				-0.7071068286895752,
				0,
				0,
				0.7071068286895752
			],
			"translation":[
				-1.3539501428604126,
				0,
				-1.5897119045257568
			]
		}
	],
	"materials":[
		{
			"doubleSided":true,
			"name":"Cycles Red & Silver Smart Material.001",
			"pbrMetallicRoughness":{
				"baseColorFactor":[
					0.003095408668741584,
					0.003095408668741584,
					0.003095408668741584,
					1
				],
				"roughnessFactor":0.4000000059604645
			}
		},
		{
			"doubleSided":true,
			"name":"bullet-low_BM_Custom_Material",
			"pbrMetallicRoughness":{
				"baseColorFactor":[
					0.0036420654505491257,
					0.0036420654505491257,
					0.0036420654505491257,
					1
				],
				"roughnessFactor":0.43577998876571655
			}
		},
		{
			"doubleSided":true,
			"name":"Material.001",
			"pbrMetallicRoughness":{
				"baseColorFactor":[
					0.009018111042678356,
					0.009018111042678356,
					0.009018111042678356,
					1
				],
				"roughnessFactor":0.43577998876571655
			}
		}
	],
	"meshes":[
		{
			"name":"Cylinder.003",
			"primitives":[
				{
					"attributes":{
						"POSITION":0,
						"TEXCOORD_0":1,
						"NORMAL":2
					},
					"indices":3,
					"material":0
				},
				{
					"attributes":{
						"POSITION":4,
						"TEXCOORD_0":5,
						"NORMAL":6
					},
					"indices":7,
					"material":1
				},
				{
					"attributes":{
						"POSITION":8,
						"TEXCOORD_0":9,
						"NORMAL":10
					},
					"indices":11,
					"material":2
				}
			]
		}
	],
	"accessors":[
		{
			"bufferView":0,
			"componentType":5126,
			"count":404,
			"max":[
				1.993377685546875,
				0.08735689520835876,
				0.1391887664794922
			],
			"min":[
				-0.21511441469192505,
				-0.21765553951263428,
				-0.13918887078762054
			],
			"type":"VEC3"
		},
		{
			"bufferView":1,
			"componentType":5126,
			"count":404,
			"type":"VEC2"
		},
		{
			"bufferView":2,
			"componentType":5126,
			"count":404,
			"type":"VEC3"
		},
		{
			"bufferView":3,
			"componentType":5123,
			"count":1242,
			"type":"SCALAR"
		},
		{
			"bufferView":4,
			"componentType":5126,
			"count":468,
			"max":[
				-0.2009630799293518,
				0.18730947375297546,
				0.317795991897583
			],
			"min":[
				-1.0284080505371094,
				-0.49843114614486694,
				-0.35151076316833496
			],
			"type":"VEC3"
		},
		{
			"bufferView":5,
			"componentType":5126,
			"count":468,
			"type":"VEC2"
		},
		{
			"bufferView":6,
			"componentType":5126,
			"count":468,
			"type":"VEC3"
		},
		{
			"bufferView":7,
			"componentType":5123,
			"count":1860,
			"type":"SCALAR"
		},
		{
			"bufferView":8,
			"componentType":5126,
			"count":3622,
			"max":[
				1.9607229232788086,
				1.4531803131103516,
				0.2153351902961731
			],
			"min":[
				-2.2506959438323975,
				-0.6912640333175659,
				-0.21533508598804474
			],
			"type":"VEC3"
		},
		{
			"bufferView":9,
			"componentType":5126,
			"count":3622,
			"type":"VEC2"
		},
		{
			"bufferView":10,
			"componentType":5126,
			"count":3622,
			"type":"VEC3"
		},
		{
			"bufferView":11,
			"componentType":5123,
			"count":11772,
			"type":"SCALAR"
		}
	],
	"bufferViews":[
		{
			"buffer":0,
			"byteLength":4848,
			"byteOffset":0,
			"target":34962
		},
		{
			"buffer":0,
			"byteLength":3232,
			"byteOffset":4848,
			"target":34962
		},
		{
			"buffer":0,
			"byteLength":4848,
			"byteOffset":8080,
			"target":34962
		},
		{
			"buffer":0,
			"byteLength":2484,
			"byteOffset":12928,
			"target":34963
		},
		{
			"buffer":0,
			"byteLength":5616,
			"byteOffset":15412,
			"target":34962
		},
		{
			"buffer":0,
			"byteLength":3744,
			"byteOffset":21028,
			"target":34962
		},
		{
			"buffer":0,
			"byteLength":5616,
			"byteOffset":24772,
			"target":34962
		},
		{
			"buffer":0,
			"byteLength":3720,
			"byteOffset":30388,
			"target":34963
		},
		{
			"buffer":0,
			"byteLength":43464,
			"byteOffset":34108,
			"target":34962
		},
		{
			"buffer":0,
			"byteLength":28976,
			"byteOffset":77572,
			"target":34962
		},
		{
			"buffer":0,
			"byteLength":43464,
			"byteOffset":106548,
			"target":34962
		},
		{
			"buffer":0,
			"byteLength":23544,
			"byteOffset":150012,
			"target":34963
		}
	],
	"buffers":[
		{
			"byteLength":173556,
			"uri":"data:application/octet-stream;base64,"
		}
	]
}
