{
	"asset":{
		"generator":"Khronos glTF Blender I/O v3.5.30",
		"version":"2.0"
	},
	"extensionsUsed":[
		"KHR_materials_specular",
		"KHR_materials_ior",
		"KHR_lights_punctual"
	],
	"extensionsRequired":[
		"KHR_lights_punctual"
	],
	"extensions":{
		"KHR_lights_punctual":{
			"lights":[
				{
					"color":[
						1,
						1,
						1
					],
					"intensity":0.7957747154594768,
					"type":"point",
					"name":"Point"
				},
				{
					"color":[
						1,
						1,
						1
					],
					"intensity":0.7957747154594768,
					"type":"point",
					"name":"Point.001"
				}
			]
		}
	},
	"scene":0,
	"scenes":[
		{
			"name":"Scene",
			"nodes":[
				0,
				1,
				2
			]
		}
	],
	"nodes":[
		{
			"mesh":0,
			"name":"radio_low_poly",
			"translation":[
				0.2960335612297058,
				0.19807171821594238,
				-0.0007296651601791382
			]
		},
		{
			"extensions":{
				"KHR_lights_punctual":{
					"light":0
				}
			},
			"name":"Point",
			"rotation":[
				-0.5083022117614746,
				-0.3869549036026001,
				-0.0017744768410921097,
				0.7693449258804321
			],
			"translation":[
				-0.11724445223808289,
				-0.3061237335205078,
				0.8138540983200073
			]
		},
		{
			"extensions":{
				"KHR_lights_punctual":{
					"light":1
				}
			},
			"name":"Point.001",
			"rotation":[
				-0.5083022117614746,
				-0.3869549036026001,
				-0.0017744768410921097,
				0.7693449258804321
			],
			"translation":[
				-0.5755236148834229,
				1.6625645160675049,
				-0.6006722450256348
			]
		}
	],
	"materials":[
		{
			"doubleSided":true,
			"extensions":{
				"KHR_materials_specular":{
					"specularColorFactor":[
						0,
						0,
						0
					]
				},
				"KHR_materials_ior":{
					"ior":1.4500000476837158
				}
			},
			"name":"02 - Default",
			"pbrMetallicRoughness":{
				"baseColorFactor":[
					0.8549790978431702,
					0,
					0.6455361843109131,
					1
				],
				"roughnessFactor":0.858578622341156
			}
		},
		{
			"doubleSided":true,
			"name":"Material.001",
			"pbrMetallicRoughness":{
				"metallicFactor":0,
				"roughnessFactor":0.5
			}
		}
	],
	"meshes":[
		{
			"name":"Mesh",
			"primitives":[
				{
					"attributes":{
						"POSITION":0,
						"TEXCOORD_0":1,
						"NORMAL":2
					},
					"indices":3,
					"material":0
				},
				{
					"attributes":{
						"POSITION":4,
						"TEXCOORD_0":5,
						"NORMAL":6
					},
					"indices":7,
					"material":1
				}
			]
		}
	],
	"accessors":[
		{
			"bufferView":0,
			"componentType":5126,
			"count":8937,
			"max":[
				0.9957600831985474,
				0.9567115306854248,
				0.5422738790512085
			],
			"min":[
				-0.8655354380607605,
				-1.5658899545669556,
				-0.511282205581665
			],
			"type":"VEC3"
		},
		{
			"bufferView":1,
			"componentType":5126,
			"count":8937,
			"type":"VEC2"
		},
		{
			"bufferView":2,
			"componentType":5126,
			"count":8937,
			"type":"VEC3"
		},
		{
			"bufferView":3,
			"componentType":5123,
			"count":35430,
			"type":"SCALAR"
		},
		{
			"bufferView":4,
			"componentType":5126,
			"count":28,
			"max":[
				0.49871960282325745,
				-0.1272125542163849,
				0.2829553782939911
			],
			"min":[
				-0.1543424129486084,
				-0.6920820474624634,
				-0.13085323572158813
			],
			"type":"VEC3"
		},
		{
			"bufferView":5,
			"componentType":5126,
			"count":28,
			"type":"VEC2"
		},
		{
			"bufferView":6,
			"componentType":5126,
			"count":28,
			"type":"VEC3"
		},
		{
			"bufferView":7,
			"componentType":5123,
			"count":78,
			"type":"SCALAR"
		}
	],
	"bufferViews":[
		{
			"buffer":0,
			"byteLength":107244,
			"byteOffset":0,
			"target":34962
		},
		{
			"buffer":0,
			"byteLength":71496,
			"byteOffset":107244,
			"target":34962
		},
		{
			"buffer":0,
			"byteLength":107244,
			"byteOffset":178740,
			"target":34962
		},
		{
			"buffer":0,
			"byteLength":70860,
			"byteOffset":285984,
			"target":34963
		},
		{
			"buffer":0,
			"byteLength":336,
			"byteOffset":356844,
			"target":34962
		},
		{
			"buffer":0,
			"byteLength":224,
			"byteOffset":357180,
			"target":34962
		},
		{
			"buffer":0,
			"byteLength":336,
			"byteOffset":357404,
			"target":34962
		},
		{
			"buffer":0,
			"byteLength":156,
			"byteOffset":357740,
			"target":34963
		}
	],
	"buffers":[
		{
			"byteLength":357896,
			"uri":"data:application/octet-stream;base64,"
		}
	]
}
